STARTFONT 2.1
COMMENT  
COMMENT  WARNING:  This bdf file was generated from an X server using
COMMENT  xbdfdump.  The resulting font is subject to the same copyright,
COMMENT  license, and trademark restrictions as the original font.  The
COMMENT  author and distributors of xbdfdump disclaim all liability for
COMMENT  misuse of the program or its output.
COMMENT  
FONT -phaisarn-angsana-medium-i-normal--16-160-75-75-p-75-tis620-0
SIZE 16 75 75
FONTBOUNDINGBOX 36 43 -11 -13
STARTPROPERTIES 26
FOUNDRY "Phaisarn"
FAMILY_NAME "Angsana"
WEIGHT_NAME "medium"
SLANT "i"
SETWIDTH_NAME "normal"
ADD_STYLE_NAME ""
PIXEL_SIZE 16
POINT_SIZE 160
RESOLUTION_X 75
RESOLUTION_Y 75
SPACING "p"
AVERAGE_WIDTH 75
CHARSET_REGISTRY "tis620"
CHARSET_ENCODING "0"
COPYRIGHT "Angsana by Pt-TITech 1997"
RAW_PIXELSIZE 1000
RAW_POINTSIZE "N"
RAW_ASCENT "CIRCUMFLEX_ACCENT"
RAW_DESCENT "RAW_FIGURE_WIDTH"
RAW_AVERAGE_WIDTH 2994
FACE_NAME "Angsana Inclined"
WEIGHT 10
X_HEIGHT 9
QUAD_WIDTH 13
FONT_ASCENT 30
FONT_DESCENT 10
ENDPROPERTIES
CHARS 199
STARTCHAR space
ENCODING 32
SWIDTH 300 0
DWIDTH 5 0
BBX 0 0 0 0
BITMAP
ENDCHAR
STARTCHAR exclam
ENCODING 33
SWIDTH 420 0
DWIDTH 7 0
BBX 5 14 2 0
BITMAP
08
18
18
10
10
20
20
20
20
60
00
00
c0
c0
ENDCHAR
STARTCHAR quotedbl
ENCODING 34
SWIDTH 540 0
DWIDTH 9 0
BBX 7 6 3 8
BITMAP
66
66
cc
cc
88
88
ENDCHAR
STARTCHAR numbersign
ENCODING 35
SWIDTH 600 0
DWIDTH 10 0
BBX 10 14 1 0
BITMAP
0880
0880
1080
1100
ffc0
1100
2100
2100
2100
ffc0
2200
4200
4200
4400
ENDCHAR
STARTCHAR dollar
ENCODING 36
SWIDTH 600 0
DWIDTH 10 0
BBX 9 16 1 -1
BITMAP
0100
0e00
1380
2280
2280
3400
3c00
1c00
0e00
0b00
0900
5100
9100
d200
7c00
2000
ENDCHAR
STARTCHAR percent
ENCODING 37
SWIDTH 1020 0
DWIDTH 17 0
BBX 15 15 2 -1
BITMAP
1802
6404
4408
c410
8c20
8840
5880
610c
0232
0422
0862
1046
2044
404c
8030
ENDCHAR
STARTCHAR ampersand
ENCODING 38
SWIDTH 960 0
DWIDTH 16 0
BBX 14 14 1 0
BITMAP
00e0
01b0
0110
0330
0360
0380
0f00
33bc
6190
c190
c0a0
c0c0
60e0
3f3c
ENDCHAR
STARTCHAR apostrophe
ENCODING 39
SWIDTH 240 0
DWIDTH 4 0
BBX 3 6 3 8
BITMAP
60
60
c0
c0
80
80
ENDCHAR
STARTCHAR parenleft
ENCODING 40
SWIDTH 420 0
DWIDTH 7 0
BBX 8 19 1 -4
BITMAP
01
02
0c
18
30
20
60
40
c0
c0
c0
80
80
80
80
80
40
40
20
ENDCHAR
STARTCHAR parenright
ENCODING 41
SWIDTH 420 0
DWIDTH 7 0
BBX 8 19 -2 -4
BITMAP
02
02
01
01
01
01
01
01
03
03
03
02
06
04
0c
18
10
60
80
ENDCHAR
STARTCHAR asterisk
ENCODING 42
SWIDTH 600 0
DWIDTH 10 0
BBX 8 9 3 6
BITMAP
18
18
d3
f7
18
f7
d3
18
18
ENDCHAR
STARTCHAR plus
ENCODING 43
SWIDTH 840 0
DWIDTH 14 0
BBX 11 11 2 1
BITMAP
0400
0400
0400
0400
0400
ffe0
0400
0400
0400
0400
0400
ENDCHAR
STARTCHAR comma
ENCODING 44
SWIDTH 300 0
DWIDTH 5 0
BBX 3 5 0 -3
BITMAP
60
60
20
40
80
ENDCHAR
STARTCHAR minus
ENCODING 45
SWIDTH 420 0
DWIDTH 7 0
BBX 6 1 1 4
BITMAP
fc
ENDCHAR
STARTCHAR period
ENCODING 46
SWIDTH 300 0
DWIDTH 5 0
BBX 2 2 1 0
BITMAP
c0
c0
ENDCHAR
STARTCHAR slash
ENCODING 47
SWIDTH 360 0
DWIDTH 6 0
BBX 9 15 -1 0
BITMAP
0080
0100
0100
0200
0200
0400
0400
0800
0800
1000
2000
2000
4000
4000
8000
ENDCHAR
STARTCHAR 0
ENCODING 48
SWIDTH 600 0
DWIDTH 10 0
BBX 9 14 1 0
BITMAP
0700
1900
3080
6080
6080
4080
c180
c180
c100
8300
8300
8600
4c00
3000
ENDCHAR
STARTCHAR 1
ENCODING 49
SWIDTH 600 0
DWIDTH 10 0
BBX 8 14 1 0
BITMAP
0f
06
06
06
04
0c
0c
0c
08
18
18
30
30
fc
ENDCHAR
STARTCHAR 2
ENCODING 50
SWIDTH 600 0
DWIDTH 10 0
BBX 10 14 0 0
BITMAP
0700
0f80
11c0
00c0
00c0
0080
0100
0200
0400
0800
1000
2100
7f00
fe00
ENDCHAR
STARTCHAR 3
ENCODING 51
SWIDTH 600 0
DWIDTH 10 0
BBX 9 14 1 0
BITMAP
0f00
1380
0180
0180
0300
0400
3e00
0600
0300
0300
0200
0200
c400
f800
ENDCHAR
STARTCHAR 4
ENCODING 52
SWIDTH 600 0
DWIDTH 10 0
BBX 10 14 1 0
BITMAP
0040
00c0
0180
0380
0580
0900
1100
1300
2300
4200
ff80
0600
0400
0c00
ENDCHAR
STARTCHAR 5
ENCODING 53
SWIDTH 600 0
DWIDTH 10 0
BBX 9 14 1 0
BITMAP
0780
0f80
0800
0800
1e00
0e00
0300
0100
0100
0100
0100
0200
c400
7800
ENDCHAR
STARTCHAR 6
ENCODING 54
SWIDTH 600 0
DWIDTH 10 0
BBX 10 14 1 0
BITMAP
00c0
0700
0c00
1800
3000
7e00
6300
c180
c180
8180
8300
8300
4600
3800
ENDCHAR
STARTCHAR 7
ENCODING 55
SWIDTH 600 0
DWIDTH 10 0
BBX 9 14 2 0
BITMAP
3f80
7f00
c100
0200
0200
0400
0800
0800
1000
1000
2000
4000
4000
8000
ENDCHAR
STARTCHAR 8
ENCODING 56
SWIDTH 600 0
DWIDTH 10 0
BBX 9 14 1 0
BITMAP
0f00
1080
2080
2080
3080
1b00
1e00
6600
4300
8100
8100
8100
4600
3800
ENDCHAR
STARTCHAR 9
ENCODING 57
SWIDTH 600 0
DWIDTH 10 0
BBX 9 14 1 0
BITMAP
0700
1900
3080
3080
6080
6180
6180
3100
1f00
0600
0600
0c00
3000
c000
ENDCHAR
STARTCHAR colon
ENCODING 58
SWIDTH 420 0
DWIDTH 7 0
BBX 5 9 1 0
BITMAP
18
18
00
00
00
00
00
c0
c0
ENDCHAR
STARTCHAR semicolon
ENCODING 59
SWIDTH 420 0
DWIDTH 7 0
BBX 6 12 0 -3
BITMAP
0c
0c
00
00
00
00
00
20
60
20
40
80
ENDCHAR
STARTCHAR less
ENCODING 60
SWIDTH 840 0
DWIDTH 14 0
BBX 11 10 2 2
BITMAP
0020
01c0
0600
1800
e000
6000
1800
0600
01c0
0020
ENDCHAR
STARTCHAR equal
ENCODING 61
SWIDTH 840 0
DWIDTH 14 0
BBX 11 4 2 5
BITMAP
ffe0
0000
0000
ffe0
ENDCHAR
STARTCHAR greater
ENCODING 62
SWIDTH 840 0
DWIDTH 14 0
BBX 11 10 2 2
BITMAP
8000
7000
0c00
0300
00c0
00e0
0300
0c00
7000
8000
ENDCHAR
STARTCHAR question
ENCODING 63
SWIDTH 600 0
DWIDTH 10 0
BBX 8 14 2 0
BITMAP
1c
26
63
43
07
06
08
10
20
20
40
00
c0
c0
ENDCHAR
STARTCHAR at
ENCODING 64
SWIDTH 1140 0
DWIDTH 19 0
BBX 18 20 1 -5
BITMAP
01f000
060c00
080200
100100
200100
406880
409880
411080
821080
861080
843100
8c2100
8c6200
8fa440
463840
400080
200100
100600
0e0800
01f000
ENDCHAR
STARTCHAR A
ENCODING 65
SWIDTH 780 0
DWIDTH 13 0
BBX 13 14 -1 0
BITMAP
0010
0010
0030
0070
00b0
0130
0260
0260
07e0
0860
1060
2060
60e0
f1f8
ENDCHAR
STARTCHAR B
ENCODING 66
SWIDTH 780 0
DWIDTH 13 0
BBX 13 14 -1 0
BITMAP
0fc0
0330
0618
0618
0630
0c70
0fc0
0c60
1830
1830
1830
3060
33c0
ff00
ENDCHAR
STARTCHAR C
ENCODING 67
SWIDTH 840 0
DWIDTH 14 0
BBX 13 14 1 0
BITMAP
03c8
0e38
1810
3008
6008
6000
e000
c000
c000
c000
c000
6020
30c0
0f00
ENDCHAR
STARTCHAR D
ENCODING 68
SWIDTH 900 0
DWIDTH 15 0
BBX 16 14 -1 0
BITMAP
0ff0
030c
0606
0602
0603
0c03
0c03
0c03
0806
1806
180c
3818
3070
ff80
ENDCHAR
STARTCHAR E
ENCODING 69
SWIDTH 780 0
DWIDTH 13 0
BBX 14 14 0 0
BITMAP
0ffc
060c
0604
0600
0c20
0c40
0fc0
0840
1840
1800
1808
3010
3060
ffe0
ENDCHAR
STARTCHAR F
ENCODING 70
SWIDTH 780 0
DWIDTH 13 0
BBX 15 14 -1 0
BITMAP
0ffe
0604
0602
0600
0c10
0c20
0fe0
0c40
1860
1800
1800
3000
3000
fc00
ENDCHAR
STARTCHAR G
ENCODING 71
SWIDTH 900 0
DWIDTH 15 0
BBX 14 14 1 0
BITMAP
01e4
061c
1808
3008
6008
6000
c0fc
c030
c030
c020
4060
6060
3040
0f80
ENDCHAR
STARTCHAR H
ENCODING 72
SWIDTH 900 0
DWIDTH 15 0
BBX 18 14 -1 0
BITMAP
0f8fc0
070300
060300
060600
040600
0c0600
0ffc00
0c0c00
180c00
181800
181800
301800
303800
fc7c00
ENDCHAR
STARTCHAR I
ENCODING 73
SWIDTH 420 0
DWIDTH 7 0
BBX 9 14 -1 0
BITMAP
0f80
0600
0600
0600
0400
0c00
0c00
0800
1800
1800
1000
3000
3000
fc00
ENDCHAR
STARTCHAR J
ENCODING 74
SWIDTH 540 0
DWIDTH 9 0
BBX 12 14 -1 0
BITMAP
03f0
00c0
00c0
0180
0180
0180
0100
0300
0300
0200
0600
c400
8800
7000
ENDCHAR
STARTCHAR K
ENCODING 75
SWIDTH 840 0
DWIDTH 14 0
BBX 16 14 -1 0
BITMAP
0f9f
070c
0618
0620
04c0
0d00
0f00
0b00
1980
18c0
10c0
3060
3070
fcfc
ENDCHAR
STARTCHAR L
ENCODING 76
SWIDTH 720 0
DWIDTH 12 0
BBX 12 14 -1 0
BITMAP
0fc0
0700
0600
0600
0600
0c00
0c00
0c00
1800
1800
1810
1010
3060
ffe0
ENDCHAR
STARTCHAR M
ENCODING 77
SWIDTH 1020 0
DWIDTH 17 0
BBX 20 14 -1 0
BITMAP
0e00f0
0600c0
0701c0
070380
070780
0b0580
0b0900
0b1300
113300
112200
11c600
218600
218e00
f91f00
ENDCHAR
STARTCHAR N
ENCODING 78
SWIDTH 840 0
DWIDTH 14 0
BBX 17 14 -1 0
BITMAP
1e0f80
060200
070200
070400
058400
098400
098800
08c800
10c800
106800
107000
203000
202000
f82000
ENDCHAR
STARTCHAR O
ENCODING 79
SWIDTH 900 0
DWIDTH 15 0
BBX 14 14 1 0
BITMAP
01e0
0638
1818
300c
300c
600c
601c
e018
c018
c030
c030
6060
6180
1e00
ENDCHAR
STARTCHAR P
ENCODING 80
SWIDTH 780 0
DWIDTH 13 0
BBX 14 14 -1 0
BITMAP
0ff0
0718
060c
060c
060c
0c18
0c30
0fc0
1800
1800
1800
3000
3000
fc00
ENDCHAR
STARTCHAR Q
ENCODING 81
SWIDTH 900 0
DWIDTH 15 0
BBX 14 18 1 -4
BITMAP
01e0
0618
0818
300c
300c
600c
600c
e01c
c018
c038
c030
4060
60c0
3f00
1000
2008
fe30
1fc0
ENDCHAR
STARTCHAR R
ENCODING 82
SWIDTH 780 0
DWIDTH 13 0
BBX 13 14 -1 0
BITMAP
0fe0
0630
0618
0618
0618
0c30
0c70
0fc0
1880
18c0
18c0
3060
3060
fc78
ENDCHAR
STARTCHAR S
ENCODING 83
SWIDTH 600 0
DWIDTH 10 0
BBX 11 14 0 0
BITMAP
0720
0ce0
1840
1840
1820
0c00
0600
0300
0380
4180
4180
4180
e300
9c00
ENDCHAR
STARTCHAR T
ENCODING 84
SWIDTH 720 0
DWIDTH 12 0
BBX 12 14 1 0
BITMAP
7ff0
6630
4610
4610
0400
0c00
0c00
0800
1800
1800
1800
3000
3000
fc00
ENDCHAR
STARTCHAR U
ENCODING 85
SWIDTH 900 0
DWIDTH 15 0
BBX 15 14 2 0
BITMAP
fe1e
3808
3008
3008
3010
6010
6010
6020
c020
c020
c040
e040
7180
1e00
ENDCHAR
STARTCHAR V
ENCODING 86
SWIDTH 780 0
DWIDTH 13 0
BBX 13 14 3 0
BITMAP
fc78
3030
3040
3040
2080
2100
6200
6400
6400
6800
7000
6000
4000
4000
ENDCHAR
STARTCHAR W
ENCODING 87
SWIDTH 1020 0
DWIDTH 17 0
BBX 17 14 3 0
BITMAP
fbe780
71c300
208200
618400
638800
638800
659000
69a000
69a000
71c000
618000
410000
c10000
820000
ENDCHAR
STARTCHAR X
ENCODING 88
SWIDTH 780 0
DWIDTH 13 0
BBX 17 14 -1 0
BITMAP
07cf80
030600
030400
018800
019000
01a000
00c000
01c000
02c000
044000
086000
106000
307000
f8f800
ENDCHAR
STARTCHAR Y
ENCODING 89
SWIDTH 720 0
DWIDTH 12 0
BBX 12 14 2 0
BITMAP
7cf0
3040
3040
1080
1900
1a00
0c00
0c00
1800
1800
1800
3000
3000
fc00
ENDCHAR
STARTCHAR Z
ENCODING 90
SWIDTH 720 0
DWIDTH 12 0
BBX 13 14 0 0
BITMAP
1ff8
1030
2060
00c0
00c0
0180
0300
0600
0c00
1800
1810
3020
60e0
ffc0
ENDCHAR
STARTCHAR bracketleft
ENCODING 91
SWIDTH 480 0
DWIDTH 8 0
BBX 10 18 0 -4
BITMAP
07c0
0600
0400
0c00
0c00
0800
0800
1800
1000
1000
3000
3000
2000
6000
6000
4000
c000
f800
ENDCHAR
STARTCHAR backslash
ENCODING 92
SWIDTH 360 0
DWIDTH 6 0
BBX 3 15 2 0
BITMAP
80
80
80
40
40
40
40
40
40
40
40
20
20
20
20
ENDCHAR
STARTCHAR bracketright
ENCODING 93
SWIDTH 480 0
DWIDTH 8 0
BBX 10 18 -2 -4
BITMAP
07c0
00c0
0080
0180
0180
0100
0300
0300
0200
0200
0600
0400
0400
0c00
0c00
0800
1800
f800
ENDCHAR
STARTCHAR asciicircum
ENCODING 94
SWIDTH 540 0
DWIDTH 9 0
BBX 9 7 1 7
BITMAP
0800
1400
1400
2200
2100
4100
8080
ENDCHAR
STARTCHAR underscore
ENCODING 95
SWIDTH 600 0
DWIDTH 10 0
BBX 11 1 0 -5
BITMAP
ffe0
ENDCHAR
STARTCHAR grave
ENCODING 96
SWIDTH 420 0
DWIDTH 7 0
BBX 3 3 4 11
BITMAP
c0
60
20
ENDCHAR
STARTCHAR a
ENCODING 97
SWIDTH 600 0
DWIDTH 10 0
BBX 9 9 0 0
BITMAP
0680
1980
3100
6100
6300
c300
c600
ca80
7300
ENDCHAR
STARTCHAR b
ENCODING 98
SWIDTH 600 0
DWIDTH 10 0
BBX 9 15 1 0
BITMAP
3800
1800
1000
1000
1000
3000
2e00
3100
6180
6180
4100
c300
c200
8c00
7000
ENDCHAR
STARTCHAR c
ENCODING 99
SWIDTH 540 0
DWIDTH 9 0
BBX 8 9 1 0
BITMAP
06
19
23
60
c0
c0
c1
66
38
ENDCHAR
STARTCHAR d
ENCODING 100
SWIDTH 600 0
DWIDTH 10 0
BBX 11 15 0 0
BITMAP
00e0
0060
0040
0040
00c0
0080
0680
0980
3180
6100
4100
c300
c700
ca80
7300
ENDCHAR
STARTCHAR e
ENCODING 101
SWIDTH 540 0
DWIDTH 9 0
BBX 8 9 1 0
BITMAP
06
19
21
62
5c
e0
c0
62
3c
ENDCHAR
STARTCHAR f
ENCODING 102
SWIDTH 360 0
DWIDTH 6 0
BBX 14 20 -4 -5
BITMAP
0018
002c
0048
0080
0180
0180
07c0
0300
0300
0300
0200
0600
0600
0600
0400
0c00
0800
0800
d000
6000
ENDCHAR
STARTCHAR g
ENCODING 103
SWIDTH 600 0
DWIDTH 10 0
BBX 12 14 -1 -5
BITMAP
1ef0
18c0
30c0
30c0
1180
0e00
1800
3000
1f00
63c0
80c0
8040
e180
3e00
ENDCHAR
STARTCHAR h
ENCODING 104
SWIDTH 600 0
DWIDTH 10 0
BBX 10 15 0 0
BITMAP
3800
0800
1800
1800
1000
1100
3780
2d80
2980
7300
6300
6300
4240
c680
c700
ENDCHAR
STARTCHAR i
ENCODING 105
SWIDTH 360 0
DWIDTH 6 0
BBX 5 13 1 0
BITMAP
18
18
00
00
f0
30
20
60
60
40
c0
d0
e0
ENDCHAR
STARTCHAR j
ENCODING 106
SWIDTH 360 0
DWIDTH 6 0
BBX 10 18 -4 -5
BITMAP
00c0
00c0
0000
0000
0780
0180
0100
0300
0300
0200
0600
0600
0400
0c00
0c00
1800
9000
e000
ENDCHAR
STARTCHAR k
ENCODING 107
SWIDTH 540 0
DWIDTH 9 0
BBX 10 15 0 0
BITMAP
3c00
0800
0800
1800
1800
1000
37c0
3100
2600
2800
7c00
6c00
4400
c780
c600
ENDCHAR
STARTCHAR l
ENCODING 108
SWIDTH 360 0
DWIDTH 6 0
BBX 5 15 1 0
BITMAP
38
18
10
10
30
30
20
20
60
60
40
40
d0
e0
c0
ENDCHAR
STARTCHAR m
ENCODING 109
SWIDTH 900 0
DWIDTH 15 0
BBX 14 9 0 0
BITMAP
799c
1aac
14ec
38c8
3158
6198
6110
6314
c338
ENDCHAR
STARTCHAR n
ENCODING 110
SWIDTH 600 0
DWIDTH 10 0
BBX 9 9 0 0
BITMAP
7380
3580
2980
7100
6300
6300
4200
c280
8300
ENDCHAR
STARTCHAR o
ENCODING 111
SWIDTH 600 0
DWIDTH 10 0
BBX 9 9 1 0
BITMAP
0e00
1100
2180
6180
c180
c300
c200
4400
3800
ENDCHAR
STARTCHAR p
ENCODING 112
SWIDTH 600 0
DWIDTH 10 0
BBX 12 13 -2 -4
BITMAP
1ee0
0530
0e30
0c30
0820
0860
18c0
1980
1600
3000
2000
6000
f800
ENDCHAR
STARTCHAR q
ENCODING 113
SWIDTH 600 0
DWIDTH 10 0
BBX 10 13 0 -4
BITMAP
0640
1980
3180
6180
6100
c300
c700
cb00
7200
0600
0600
0c00
3f00
ENDCHAR
STARTCHAR r
ENCODING 114
SWIDTH 480 0
DWIDTH 8 0
BBX 8 9 0 0
BITMAP
73
37
2f
28
30
60
40
40
c0
ENDCHAR
STARTCHAR s
ENCODING 115
SWIDTH 480 0
DWIDTH 8 0
BBX 8 9 0 0
BITMAP
37
22
32
38
1c
84
84
c8
b8
ENDCHAR
STARTCHAR t
ENCODING 116
SWIDTH 360 0
DWIDTH 6 0
BBX 5 12 1 0
BITMAP
08
10
30
78
30
20
60
60
60
c0
d0
e0
ENDCHAR
STARTCHAR u
ENCODING 117
SWIDTH 600 0
DWIDTH 10 0
BBX 9 9 1 0
BITMAP
6080
a180
6100
6300
4300
4700
ca00
d680
e700
ENDCHAR
STARTCHAR v
ENCODING 118
SWIDTH 540 0
DWIDTH 9 0
BBX 9 9 0 0
BITMAP
e180
3180
3080
3100
1100
1200
1400
1800
1000
ENDCHAR
STARTCHAR w
ENCODING 119
SWIDTH 840 0
DWIDTH 14 0
BBX 14 9 0 0
BITMAP
e04c
30c4
11c4
12c4
12c8
1450
1850
1060
1040
ENDCHAR
STARTCHAR x
ENCODING 120
SWIDTH 540 0
DWIDTH 9 0
BBX 10 9 -1 0
BITMAP
38c0
19c0
0e00
0c00
0400
0c00
1640
e680
c300
ENDCHAR
STARTCHAR y
ENCODING 121
SWIDTH 540 0
DWIDTH 9 0
BBX 11 14 -2 -5
BITMAP
1c60
0660
0620
0620
0640
06c0
0680
0300
0200
0200
0400
0800
d000
e000
ENDCHAR
STARTCHAR z
ENCODING 122
SWIDTH 480 0
DWIDTH 8 0
BBX 9 9 -1 0
BITMAP
3f80
2100
0200
0400
0800
1000
2100
4100
fe00
ENDCHAR
STARTCHAR braceleft
ENCODING 123
SWIDTH 480 0
DWIDTH 8 0
BBX 8 20 2 -5
BITMAP
03
04
08
08
18
18
18
30
60
80
80
40
40
40
40
80
80
80
80
40
ENDCHAR
STARTCHAR bar
ENCODING 124
SWIDTH 360 0
DWIDTH 6 0
BBX 1 20 2 -5
BITMAP
80
80
80
80
80
80
80
80
80
80
80
80
80
80
80
80
80
80
80
80
ENDCHAR
STARTCHAR braceright
ENCODING 125
SWIDTH 480 0
DWIDTH 8 0
BBX 9 20 -2 -5
BITMAP
0300
0080
0080
0180
0180
0300
0300
0200
0200
0180
0100
0200
0400
0c00
0c00
0c00
0800
0800
1000
e000
ENDCHAR
STARTCHAR asciitilde
ENCODING 126
SWIDTH 660 0
DWIDTH 11 0
BBX 11 3 0 4
BITMAP
7020
4e20
81c0
ENDCHAR
STARTCHAR exclamdown
ENCODING 161
SWIDTH 780 0
DWIDTH 13 0
BBX 10 13 1 0
BITMAP
0f00
3180
40c0
78c0
60c0
60c0
60c0
6080
4180
4180
c180
c180
c100
ENDCHAR
STARTCHAR cent
ENCODING 162
SWIDTH 780 0
DWIDTH 13 0
BBX 10 13 2 0
BITMAP
3840
58c0
8cc0
e880
b980
5980
1980
1980
1980
3100
1300
1200
0c00
ENDCHAR
STARTCHAR sterling
ENCODING 163
SWIDTH 900 0
DWIDTH 15 0
BBX 12 13 2 0
BITMAP
2610
7e30
5e30
9620
8620
b660
d460
6460
0c60
0c40
0cc0
0480
0300
ENDCHAR
STARTCHAR currency
ENCODING 164
SWIDTH 780 0
DWIDTH 13 0
BBX 11 13 1 0
BITMAP
1f80
21c0
40e0
9c60
a460
a460
7cc0
60c0
40c0
40c0
c0c0
c180
c180
ENDCHAR
STARTCHAR yen
ENCODING 165
SWIDTH 780 0
DWIDTH 13 0
BBX 9 13 2 0
BITMAP
1900
2b80
4580
4080
9880
a480
e580
7980
6180
4100
c100
c100
c100
ENDCHAR
STARTCHAR brokenbar
ENCODING 166
SWIDTH 960 0
DWIDTH 16 0
BBX 13 13 2 0
BITMAP
6608
7e18
9618
8630
9630
b430
5430
6c30
0c20
1e60
69e0
68e0
3860
ENDCHAR
STARTCHAR section
ENCODING 167
SWIDTH 600 0
DWIDTH 10 0
BBX 8 13 1 0
BITMAP
07
09
09
07
03
83
82
42
22
36
1e
0e
0e
ENDCHAR
STARTCHAR diaeresis
ENCODING 168
SWIDTH 660 0
DWIDTH 11 0
BBX 8 13 2 0
BITMAP
3c
46
83
73
b3
b3
72
32
36
26
26
34
18
ENDCHAR
STARTCHAR copyright
ENCODING 169
SWIDTH 840 0
DWIDTH 14 0
BBX 10 13 2 0
BITMAP
3e00
4380
8180
61c0
b180
b180
6180
2180
2f00
3380
6480
6480
6300
ENDCHAR
STARTCHAR ordfeminine
ENCODING 170
SWIDTH 780 0
DWIDTH 13 0
BBX 12 13 2 0
BITMAP
3870
4c60
8cc0
af00
ad80
4980
1980
1980
1980
1900
1300
1200
7c00
ENDCHAR
STARTCHAR guillemotleft
ENCODING 171
SWIDTH 840 0
DWIDTH 14 0
BBX 13 13 1 0
BITMAP
1218
3718
5b30
8b60
83c0
b3c0
9660
6660
0660
0640
06c0
0480
1f80
ENDCHAR
STARTCHAR notsign
ENCODING 172
SWIDTH 960 0
DWIDTH 16 0
BBX 15 13 1 0
BITMAP
0e02
3386
2184
40cc
78cc
318c
218c
218c
6188
6798
9958
9b38
6638
ENDCHAR
STARTCHAR hyphen
ENCODING 173
SWIDTH 1020 0
DWIDTH 17 0
BBX 14 19 2 -6
BITMAP
3e04
230c
4308
8118
f118
4118
4318
4318
4210
6230
d230
5220
61c0
0000
0260
0660
0460
02c0
0300
ENDCHAR
STARTCHAR registered
ENCODING 174
SWIDTH 780 0
DWIDTH 13 0
BBX 12 19 0 -6
BITMAP
03c0
0c60
1030
1030
3e30
1830
1830
1820
1020
7060
9060
9060
6260
0440
18c0
2ec0
4bc0
31c0
0180
ENDCHAR
STARTCHAR macron
ENCODING 175
SWIDTH 840 0
DWIDTH 14 0
BBX 11 19 1 -6
BITMAP
0780
18c0
1060
2060
3c60
1860
1060
1060
3040
7040
b0c0
a0c0
44c0
08c0
7080
5080
9180
6f80
0180
ENDCHAR
STARTCHAR degree
ENCODING 176
SWIDTH 720 0
DWIDTH 12 0
BBX 13 19 -1 -6
BITMAP
07c8
0870
1780
18c0
0c40
1660
1660
0e60
06c0
06c0
06c0
06c0
0700
1300
7580
9780
9980
6980
0f00
ENDCHAR
STARTCHAR plusminus
ENCODING 177
SWIDTH 1020 0
DWIDTH 17 0
BBX 14 13 1 0
BITMAP
2618
7e3c
5a4c
824c
868c
9688
f708
2718
0618
0e18
0e18
0c10
0c10
ENDCHAR
STARTCHAR twosuperior
ENCODING 178
SWIDTH 1020 0
DWIDTH 17 0
BBX 15 13 1 0
BITMAP
0982
3fc6
44c6
4044
8ecc
92cc
92cc
cccc
d888
e3d8
c5b8
c5b8
c318
ENDCHAR
STARTCHAR threesuperior
ENCODING 179
SWIDTH 1020 0
DWIDTH 17 0
BBX 15 13 1 0
BITMAP
1e02
3384
4184
4184
fd8c
318c
310c
610c
610c
7d38
67d4
6f24
3218
ENDCHAR
STARTCHAR acute
ENCODING 180
SWIDTH 780 0
DWIDTH 13 0
BBX 11 13 1 0
BITMAP
0f00
31c0
60e0
4060
8c60
9260
d2e0
ccc0
78c0
70c0
61c0
c180
c180
ENDCHAR
STARTCHAR mu
ENCODING 181
SWIDTH 780 0
DWIDTH 13 0
BBX 10 13 1 0
BITMAP
0980
37c0
44c0
4040
8cc0
92c0
92c0
dc80
c880
7080
e080
c180
c180
ENDCHAR
STARTCHAR paragraph
ENCODING 182
SWIDTH 780 0
DWIDTH 13 0
BBX 10 13 1 0
BITMAP
1f00
2180
40c0
40c0
f8c0
60c0
60c0
6080
6180
6180
f980
4980
3100
ENDCHAR
STARTCHAR periodcentered
ENCODING 183
SWIDTH 840 0
DWIDTH 14 0
BBX 11 13 2 0
BITMAP
70c0
9960
9a60
7a60
1a60
1440
34c0
38c0
38c0
38c0
3080
7080
6080
ENDCHAR
STARTCHAR cedilla
ENCODING 184
SWIDTH 720 0
DWIDTH 12 0
BBX 11 13 1 0
BITMAP
1e60
7780
d880
7800
1f00
1180
1100
3300
3300
3300
3300
2200
fc00
ENDCHAR
STARTCHAR onesuperior
ENCODING 185
SWIDTH 900 0
DWIDTH 15 0
BBX 12 13 2 0
BITMAP
7030
9860
9860
7860
3060
30e0
30c0
30c0
30c0
2780
6a40
7240
6380
ENDCHAR
STARTCHAR masculine
ENCODING 186
SWIDTH 840 0
DWIDTH 14 0
BBX 12 13 2 0
BITMAP
7030
9830
9830
7820
1860
1060
3060
3060
3060
3040
30c0
20c0
ff80
ENDCHAR
STARTCHAR guillemotright
ENCODING 187
SWIDTH 840 0
DWIDTH 14 0
BBX 14 21 2 0
BITMAP
0004
000c
0008
0008
0018
0018
0018
0018
7010
9830
9830
7830
1830
1830
1020
3060
3060
3060
3060
20c0
ff80
ENDCHAR
STARTCHAR onequarter
ENCODING 188
SWIDTH 780 0
DWIDTH 13 0
BBX 12 13 0 0
BITMAP
0c30
3230
3230
3c20
2060
6260
6660
6960
7140
60c0
e0c0
c0c0
c080
ENDCHAR
STARTCHAR onehalf
ENCODING 189
SWIDTH 780 0
DWIDTH 13 0
BBX 13 21 0 0
BITMAP
0008
0018
0018
0010
0030
0030
0030
0030
0c30
3420
3460
3860
6060
6260
6660
6a40
71c0
61c0
e0c0
c0c0
c080
ENDCHAR
STARTCHAR threequarters
ENCODING 190
SWIDTH 900 0
DWIDTH 15 0
BBX 12 13 2 0
BITMAP
7130
9930
9330
7330
1520
35a0
34e0
38e0
28e0
30e0
70c0
60c0
60c0
ENDCHAR
STARTCHAR questiondown
ENCODING 191
SWIDTH 900 0
DWIDTH 15 0
BBX 14 20 2 0
BITMAP
0004
000c
0008
0018
0018
0018
0018
7118
9110
9330
7330
3530
35b0
34a0
38e0
28e0
30e0
70e0
60e0
60c0
ENDCHAR
STARTCHAR Agrave
ENCODING 192
SWIDTH 780 0
DWIDTH 13 0
BBX 12 13 0 0
BITMAP
07c0
0ce0
1070
1030
3e30
1830
1830
1820
1860
7060
9060
9060
6040
ENDCHAR
STARTCHAR Aacute
ENCODING 193
SWIDTH 780 0
DWIDTH 13 0
BBX 12 13 1 0
BITMAP
3810
4830
4c30
3820
1860
1860
1860
1860
7840
9440
b2c0
b3c0
6180
ENDCHAR
STARTCHAR Acircumflex
ENCODING 194
SWIDTH 660 0
DWIDTH 11 0
BBX 10 13 1 0
BITMAP
1840
24c0
6480
5980
4180
3980
4180
c180
c100
8300
c300
4600
3800
ENDCHAR
STARTCHAR Atilde
ENCODING 195
SWIDTH 660 0
DWIDTH 11 0
BBX 9 13 2 0
BITMAP
3880
4f00
4200
c000
3800
0600
0400
0c00
0c00
3c00
5c00
5800
3000
ENDCHAR
STARTCHAR Adiaeresis
ENCODING 196
SWIDTH 780 0
DWIDTH 13 0
BBX 10 18 1 -5
BITMAP
1f00
2180
40c0
40c0
f8c0
60c0
60c0
6080
6180
6180
f980
4980
3100
0100
0100
0300
0300
0200
ENDCHAR
STARTCHAR Aring
ENCODING 197
SWIDTH 780 0
DWIDTH 13 0
BBX 9 13 2 0
BITMAP
3e00
4300
8180
1d80
6380
4380
4100
c300
c300
e300
9300
9200
6200
ENDCHAR
STARTCHAR AE
ENCODING 198
SWIDTH 780 0
DWIDTH 13 0
BBX 12 18 0 -5
BITMAP
07c0
0ce0
1070
1030
3e30
1830
1830
1820
1860
7060
9060
9060
6040
00c0
00c0
00c0
00c0
0080
ENDCHAR
STARTCHAR Ccedilla
ENCODING 199
SWIDTH 660 0
DWIDTH 11 0
BBX 9 13 2 0
BITMAP
1e00
6300
8180
0180
0180
0180
0100
0100
0300
0f00
0b00
1200
0c00
ENDCHAR
STARTCHAR Egrave
ENCODING 200
SWIDTH 780 0
DWIDTH 13 0
BBX 12 14 1 0
BITMAP
0030
1f20
61e0
40c0
99c0
a680
e480
f980
6180
4180
c180
c100
c100
c300
ENDCHAR
STARTCHAR Eacute
ENCODING 201
SWIDTH 840 0
DWIDTH 14 0
BBX 12 13 1 0
BITMAP
3010
2830
4830
3820
1860
1e60
1a60
18e0
1740
30c0
30c0
30c0
ff00
ENDCHAR
STARTCHAR Ecircumflex
ENCODING 202
SWIDTH 840 0
DWIDTH 14 0
BBX 13 14 2 0
BITMAP
0018
1f10
61b0
81c0
8ec0
31c0
61c0
4080
c180
c180
e180
9180
9180
6300
ENDCHAR
STARTCHAR Ediaeresis
ENCODING 203
SWIDTH 900 0
DWIDTH 15 0
BBX 12 13 2 0
BITMAP
7060
9090
9090
70e0
11e0
3240
34c0
38c0
30c0
20c0
60c0
6080
6180
ENDCHAR
STARTCHAR Igrave
ENCODING 204
SWIDTH 900 0
DWIDTH 15 0
BBX 14 14 2 0
BITMAP
0024
605c
5198
92f0
7220
2660
2560
6960
6960
7140
71c0
61c0
e1c0
c0c0
ENDCHAR
STARTCHAR Iacute
ENCODING 205
SWIDTH 780 0
DWIDTH 13 0
BBX 10 13 2 0
BITMAP
1f00
6180
80c0
b0c0
48c0
48c0
f180
c180
c180
c180
c100
4600
3800
ENDCHAR
STARTCHAR Icircumflex
ENCODING 206
SWIDTH 720 0
DWIDTH 12 0
BBX 11 13 1 0
BITMAP
1e60
23c0
4180
4380
3d80
3180
4900
cb00
f300
8300
8300
c600
3800
ENDCHAR
STARTCHAR Idiaeresis
ENCODING 207
SWIDTH 780 0
DWIDTH 13 0
BBX 10 13 1 0
BITMAP
01c0
03c0
7480
d580
8980
9980
e180
0180
0100
0300
0300
0300
0300
ENDCHAR
STARTCHAR ETH
ENCODING 208
SWIDTH 660 0
DWIDTH 11 0
BBX 11 12 0 0
BITMAP
1c20
1660
37c0
1f00
0000
0000
0000
38c0
6cc0
cd80
db80
7c00
ENDCHAR
STARTCHAR Ntilde
ENCODING 209
SWIDTH 0 0
DWIDTH 0 0
BBX 9 5 -6 15
BITMAP
3080
4880
8900
9300
7c00
ENDCHAR
STARTCHAR Ograve
ENCODING 210
SWIDTH 540 0
DWIDTH 9 0
BBX 6 13 2 0
BITMAP
70
8c
0c
0c
0c
0c
08
08
18
18
18
18
10
ENDCHAR
STARTCHAR Oacute
ENCODING 211
SWIDTH 540 0
DWIDTH 9 0
BBX 11 20 -3 0
BITMAP
7000
d800
8800
9800
6000
0000
0000
0380
0460
0060
0060
0060
0060
0040
0040
00c0
00c0
00c0
00c0
0080
ENDCHAR
STARTCHAR Ocircumflex
ENCODING 212
SWIDTH 0 0
DWIDTH 0 0
BBX 10 6 -9 15
BITMAP
0f00
3180
40c0
fe40
03c0
0040
ENDCHAR
STARTCHAR Otilde
ENCODING 213
SWIDTH 0 0
DWIDTH 0 0
BBX 11 6 -10 15
BITMAP
0060
1f60
21c0
4040
ff40
00c0
ENDCHAR
STARTCHAR Odiaeresis
ENCODING 214
SWIDTH 0 0
DWIDTH 0 0
BBX 12 7 -10 15
BITMAP
0060
0090
0fb0
30c0
4040
ff60
00e0
ENDCHAR
STARTCHAR multiply
ENCODING 215
SWIDTH 0 0
DWIDTH 0 0
BBX 11 7 -9 15
BITMAP
0360
0360
1f40
31c0
4040
fe40
01c0
ENDCHAR
STARTCHAR Ooblique
ENCODING 216
SWIDTH 0 0
DWIDTH 0 0
BBX 4 5 -8 -6
BITMAP
70
90
70
30
30
ENDCHAR
STARTCHAR Ugrave
ENCODING 217
SWIDTH 0 0
DWIDTH 0 0
BBX 7 6 -10 -7
BITMAP
66
a6
a6
e4
2c
38
ENDCHAR
STARTCHAR Uacute
ENCODING 218
SWIDTH 0 0
DWIDTH 0 0
BBX 3 3 -6 -4
BITMAP
60
e0
c0
ENDCHAR
STARTCHAR Ucircumflex
ENCODING 219
SWIDTH 420 0
DWIDTH 7 0
BBX 0 0 0 0
BITMAP
ENDCHAR
STARTCHAR Udiaeresis
ENCODING 220
SWIDTH 420 0
DWIDTH 7 0
BBX 6 3 0 -3
BITMAP
fc
fc
84
ENDCHAR
STARTCHAR ssharp
ENCODING 223
SWIDTH 840 0
DWIDTH 14 0
BBX 13 17 0 -1
BITMAP
0040
0040
1fe0
0ef8
0ed8
0c98
0c98
0db0
0fc0
1db0
1998
1918
1918
1b30
3b60
ffc0
0300
ENDCHAR
STARTCHAR agrave
ENCODING 224
SWIDTH 300 0
DWIDTH 5 0
BBX 4 13 0 0
BITMAP
10
30
30
30
20
60
60
60
60
60
90
90
60
ENDCHAR
STARTCHAR aacute
ENCODING 225
SWIDTH 720 0
DWIDTH 12 0
BBX 12 13 0 0
BITMAP
1830
3870
3870
3870
3060
70e0
70e0
70e0
70e0
70e0
d9b0
d9b0
60c0
ENDCHAR
STARTCHAR acircumflex
ENCODING 226
SWIDTH 660 0
DWIDTH 11 0
BBX 9 21 3 0
BITMAP
1c00
6f80
c300
3000
0c00
0600
0400
0c00
0c00
0c00
0c00
0800
0800
1800
1800
1800
1800
1800
2c00
2400
1800
ENDCHAR
STARTCHAR atilde
ENCODING 227
SWIDTH 600 0
DWIDTH 10 0
BBX 6 21 3 0
BITMAP
38
4c
bc
9c
9c
6c
0c
18
18
18
18
18
18
38
30
30
30
30
48
48
30
ENDCHAR
STARTCHAR adiaeresis
ENCODING 228
SWIDTH 660 0
DWIDTH 11 0
BBX 7 22 4 0
BITMAP
80
dc
d6
96
ac
ac
cc
0c
0c
08
18
18
18
10
10
10
30
30
30
48
48
30
ENDCHAR
STARTCHAR aring
ENCODING 229
SWIDTH 540 0
DWIDTH 9 0
BBX 6 18 2 -5
BITMAP
78
8c
0c
0c
0c
0c
08
08
18
18
18
18
10
10
30
30
30
30
ENDCHAR
STARTCHAR ae
ENCODING 230
SWIDTH 840 0
DWIDTH 14 0
BBX 10 17 1 -4
BITMAP
1b80
24c0
40c0
80c0
90c0
90c0
6080
0080
0180
0180
0180
0180
0100
0100
0300
0300
0300
ENDCHAR
STARTCHAR ccedilla
ENCODING 231
SWIDTH 0 0
DWIDTH 0 0
BBX 9 9 -8 15
BITMAP
0180
0180
0300
3e00
4000
8700
8700
b300
4e00
ENDCHAR
STARTCHAR egrave
ENCODING 232
SWIDTH 0 0
DWIDTH 0 0
BBX 3 4 -1 23
BITMAP
e0
c0
c0
c0
ENDCHAR
STARTCHAR eacute
ENCODING 233
SWIDTH 0 0
DWIDTH 0 0
BBX 8 7 -2 23
BITMAP
01
31
49
6a
1a
3c
f0
ENDCHAR
STARTCHAR ecircumflex
ENCODING 234
SWIDTH 0 0
DWIDTH 0 0
BBX 8 6 -4 24
BITMAP
01
6d
55
86
a6
68
ENDCHAR
STARTCHAR ediaeresis
ENCODING 235
SWIDTH 0 0
DWIDTH 0 0
BBX 6 6 -3 23
BITMAP
10
30
fc
fc
30
20
ENDCHAR
STARTCHAR igrave
ENCODING 236
SWIDTH 0 0
DWIDTH 0 0
BBX 7 7 0 21
BITMAP
02
06
0c
78
90
90
60
ENDCHAR
STARTCHAR iacute
ENCODING 237
SWIDTH 0 0
DWIDTH 0 0
BBX 5 5 -5 14
BITMAP
70
d8
88
98
60
ENDCHAR
STARTCHAR icircumflex
ENCODING 238
SWIDTH 0 0
DWIDTH 0 0
BBX 6 8 -4 15
BITMAP
1c
20
60
20
70
c0
80
e0
ENDCHAR
STARTCHAR idiaeresis
ENCODING 239
SWIDTH 840 0
DWIDTH 14 0
BBX 11 11 1 0
BITMAP
0f00
30c0
4620
8f20
9f20
9f20
8e40
c040
4080
6300
1e00
ENDCHAR
STARTCHAR eth
ENCODING 240
SWIDTH 780 0
DWIDTH 13 0
BBX 10 9 1 0
BITMAP
0f00
1f80
3180
60c0
c0c0
c0c0
e180
6300
3e00
ENDCHAR
STARTCHAR ntilde
ENCODING 241
SWIDTH 780 0
DWIDTH 13 0
BBX 10 9 1 0
BITMAP
0f00
3f80
61c0
40c0
8e40
9e40
9ec0
cc80
3300
ENDCHAR
STARTCHAR ograve
ENCODING 242
SWIDTH 1080 0
DWIDTH 18 0
BBX 16 15 1 0
BITMAP
7000
3000
3000
2000
6000
6000
61c7
67ef
6631
4c11
c991
cbd3
c7a2
e00c
7ff8
ENDCHAR
STARTCHAR oacute
ENCODING 243
SWIDTH 960 0
DWIDTH 16 0
BBX 14 9 1 0
BITMAP
1e38
3ffc
61cc
40c4
8084
b984
b988
5318
6630
ENDCHAR
STARTCHAR ocircumflex
ENCODING 244
SWIDTH 960 0
DWIDTH 16 0
BBX 15 14 1 0
BITMAP
0006
0006
000c
0018
00e0
0780
1c00
31e0
62e0
c2c0
c200
c300
63e0
3c38
ENDCHAR
STARTCHAR otilde
ENCODING 245
SWIDTH 1020 0
DWIDTH 17 0
BBX 16 14 1 0
BITMAP
0003
00c7
0146
034c
03f8
01e0
0700
1870
60f0
60b0
c080
c040
61e0
3e70
ENDCHAR
STARTCHAR odiaeresis
ENCODING 246
SWIDTH 840 0
DWIDTH 14 0
BBX 10 15 2 0
BITMAP
c000
6000
6000
2000
2000
2000
3e00
6180
00c0
20c0
60c0
e080
c180
4300
3c00
ENDCHAR
STARTCHAR division
ENCODING 247
SWIDTH 1020 0
DWIDTH 17 0
BBX 15 15 1 0
BITMAP
0010
001c
001c
0006
0006
0002
1c62
3df2
6712
c212
8014
8414
9c28
7c70
38c0
ENDCHAR
STARTCHAR oslash
ENCODING 248
SWIDTH 960 0
DWIDTH 16 0
BBX 15 14 1 0
BITMAP
0004
0006
000c
000c
0008
1e18
7ff0
61e0
c000
8040
98e0
fce0
6640
6380
ENDCHAR
STARTCHAR ugrave
ENCODING 249
SWIDTH 780 0
DWIDTH 13 0
BBX 12 15 1 0
BITMAP
0030
0030
0020
1fc0
3000
3000
3840
1f80
7000
c100
8380
8380
c100
6300
3e00
ENDCHAR
STARTCHAR uacute
ENCODING 250
SWIDTH 900 0
DWIDTH 15 0
BBX 14 13 1 0
BITMAP
00ec
01cc
32cc
d2c8
84d8
98d8
60d8
0198
0190
01b0
01b0
01b0
0130
ENDCHAR
STARTCHAR ucircumflex
ENCODING 251
SWIDTH 1560 0
DWIDTH 26 0
BBX 24 12 1 0
BITMAP
0f0000
318000
600000
400000
400000
802221
806643
806ae2
80fb26
c1913c
630000
3c0000
ENDCHAR
STARTCHAR udiaeresis
ENCODING 252
SWIDTH 0 0
DWIDTH 0 0
BBX 4 6 -9 -13
BITMAP
70
b0
b0
70
30
30
ENDCHAR
STARTCHAR yacute
ENCODING 253
SWIDTH 0 0
DWIDTH 0 0
BBX 7 6 -11 -13
BITMAP
66
a6
a6
e4
2c
38
ENDCHAR
STARTCHAR thorn
ENCODING 254
SWIDTH 0 0
DWIDTH 0 0
BBX 3 3 -7 -11
BITMAP
60
e0
c0
ENDCHAR
STARTCHAR C000400
ENCODING 256
SWIDTH 300 0
DWIDTH 5 0
BBX 0 0 0 0
BITMAP
ENDCHAR
STARTCHAR C000401
ENCODING 257
SWIDTH 300 0
DWIDTH 5 0
BBX 0 0 0 0
BITMAP
ENDCHAR
STARTCHAR C000430
ENCODING 280
SWIDTH 300 0
DWIDTH 5 0
BBX 0 0 0 0
BITMAP
ENDCHAR
STARTCHAR C001103
ENCODING 579
SWIDTH 600 0
DWIDTH 10 0
BBX 11 1 0 5
BITMAP
ffe0
ENDCHAR
STARTCHAR C001104
ENCODING 580
SWIDTH 1140 0
DWIDTH 19 0
BBX 19 1 0 4
BITMAP
ffffe0
ENDCHAR
STARTCHAR C001107
ENCODING 583
SWIDTH 420 0
DWIDTH 7 0
BBX 3 4 4 10
BITMAP
20
40
c0
c0
ENDCHAR
STARTCHAR C001110
ENCODING 584
SWIDTH 420 0
DWIDTH 7 0
BBX 3 4 4 10
BITMAP
60
60
60
80
ENDCHAR
STARTCHAR C001113
ENCODING 587
SWIDTH 720 0
DWIDTH 12 0
BBX 8 4 4 10
BITMAP
21
42
c6
c6
ENDCHAR
STARTCHAR C001114
ENCODING 588
SWIDTH 720 0
DWIDTH 12 0
BBX 8 4 4 10
BITMAP
63
63
43
84
ENDCHAR
STARTCHAR C001115
ENCODING 589
SWIDTH 720 0
DWIDTH 12 0
BBX 8 5 0 -3
BITMAP
63
63
21
62
84
ENDCHAR
STARTCHAR C001121
ENCODING 593
SWIDTH 420 0
DWIDTH 7 0
BBX 5 5 2 4
BITMAP
70
f8
f8
f8
70
ENDCHAR
STARTCHAR C001122
ENCODING 594
SWIDTH 1140 0
DWIDTH 19 0
BBX 13 2 3 0
BITMAP
c618
c618
ENDCHAR
ENDFONT
